{"title":"Umphrey's McGee - 2016-02-06 - Albany, NY (720p TourGigs Rip)","uid":13478985,"size":2870208384,"categoryP":"video","categoryS":"music_videos","magnet":"?xt=urn:btih:e3b0a03a9e4e1aa9d00427109165928995a79de4&amp;dn=Umphrey%27s+McGee+-+2016-02-06+-+Albany%2C+NY+%28720p+TourGigs+Rip%29&amp;tr=udp%3A%2F%2Ftracker.leechers-paradise.org%3A6969&amp;tr=udp%3A%2F%2Fzer0day.ch%3A1337&amp;tr=udp%3A%2F%2Fopen.demonii.com%3A1337&amp;tr=udp%3A%2F%2Ftracker.coppersurfer.tk%3A6969&amp;tr=udp%3A%2F%2Fexodus.desync.com%3A6969","seeders":1,"leechers":0,"uploader":"NotHuman","files":8,"time":1455040136,"description":"Umphrey's McGee\r\nFebruary 6th, 2016\r\nAlbany, NY @ Palace Theatre\r\nTourGigs HD Live Stream Rip 720p\r\n\r\nSource:\r\n\r\nTourGigs on-demand stream .TS file download &gt; Handbrake 0.10.3 (64-bit) &gt; MP4 \r\n\r\nNotes:\r\n\r\nThe original transport stream (.TS) video file was downloaded from TourGigs' server and encoded to H.264 MP4 using Handbrake set to High profile for format convenience.  Audio set to AC3 Passthru and not re-encoded.\r\n\r\n\r\nSetlist:\r\n\r\nSet 1: Catshot &gt; JaJunk[1] &gt; Mulche's Odyssey, The Pequod &gt; Gone for Good[2], Cemetery Walk, Cemetery Walk II, Ringo[3] &gt; JaJunk\r\n\r\nSet 2: Attachments, Bad Friday[4], Higgins, Life During Exodus, Resolution[5] -&gt; Remind Me\r\n\r\nEncore: The Triple Wide &gt; Hajimemashite\r\n\r\n[1] with The Fish (Yes) teases\r\n[2] with Jake on acoustic\r\n[3] With Voodoo Child (Jimi Hendrix) teases\r\n[4] with Alric Carter on keys and Isaac Teel on vocals and percussion\r\n[5] with Norwegian Wood (The Beatles) jam\r\n\r\n\r\nScreenshots:\r\n \nhttp://postimg.org/gallery/2kjcekd7u/\r\n\r\n\r\nMediaInfo:\r\n\r\nGeneral\r\nComplete name                            : F:UploadsUmphrey's McGee - 2016-02-06 - Albany, NY (TourGigs Live Stream Rip 720p)Umphrey's Mcgee - 2016-02-06 Albany, NY.mp4\r\nFormat                                   : MPEG-4\r\nFormat profile                           : Base Media / Version 2\r\nCodec ID                                 : mp42\r\nFile size                                : 2.67 GiB\r\nDuration                                 : 2h 37mn\r\nOverall bit rate                         : 2 429 Kbps\r\nEncoded date                             : UTC 2016-02-08 12:02:04\r\nTagged date                              : UTC 2016-02-08 12:02:04\r\nWriting application                      : HandBrake 0.10.3 2016012200\r\n\r\nVideo\r\nID                                       : 1\r\nFormat                                   : AVC\r\nFormat/Info                              : Advanced Video Codec\r\nFormat profile                           :   \r\nFormat settings, CABAC                   : Yes\r\nFormat settings, ReFrames                : 4 frames\r\nCodec ID                                 : avc1\r\nCodec ID/Info                            : Advanced Video Coding\r\nDuration                                 : 2h 37mn\r\nBit rate                                 : 2 198 Kbps\r\nWidth                                    : 1 280 pixels\r\nHeight                                   : 720 pixels\r\nDisplay aspect ratio                     : 16:9\r\nFrame rate mode                          : Variable\r\nFrame rate                               : 29.920 fps\r\nMinimum frame rate                       : 5.705 fps\r\nMaximum frame rate                       : 370.370 fps\r\nColor space                              : YUV\r\nChroma subsampling                       : 4:2:0\r\nBit depth                                : 8 bits\r\nScan type                                : Progressive\r\nBits/(Pixel*Frame)                       : 0.080\r\nStream size                              : 2.42 GiB (91%)\r\nWriting library                          : x264 core 142 r2479 dd79a61\r\nEncoding settings                        : cabac=1 / ref=3 / deblock=1:0:0 / analyse=0x3:0x113 / me=hex / subme=7 / psy=1 / psy_rd=1.00:0.00 / mixed_ref=1 / me_range=16 / chroma_me=1 / trellis=1 / 8x8dct=1 / cqm=0 / deadzone=21,11 / fast_pskip=1 / chroma_qp_offset=-2 / threads=6 / lookahead_threads=1 / sliced_threads=0 / nr=0 / decimate=1 / interlaced=0 / bluray_compat=0 / constrained_intra=0 / bframes=3 / b_pyramid=2 / b_adapt=1 / b_bias=0 / direct=1 / weightb=1 / open_gop=0 / weightp=2 / keyint=240 / keyint_min=24 / scenecut=40 / intra_refresh=0 / rc_lookahead=40 / rc=crf / mbtree=1 / crf=20.0 / qcomp=0.60 / qpmin=0 / qpmax=69 / qpstep=4 / vbv_maxrate=62500 / vbv_bufsize=78125 / crf_max=0.0 / nal_hrd=none / filler=0 / ip_ratio=1.40 / aq=1:1.00\r\nEncoded date                             : UTC 2016-02-08 12:02:04\r\nTagged date                              : UTC 2016-02-08 12:02:04\r\nColor primaries                          : BT.709\r\nTransfer characteristics                 : BT.709\r\nMatrix coefficients                      : BT.709\r\n\r\nAudio\r\nID                                       : 2\r\nFormat                                   : AC-3\r\nFormat/Info                              : Audio Coding 3\r\nMode extension                           : CM (complete main)\r\nFormat settings, Endianness              : Big\r\nCodec ID                                 : ac-3\r\nDuration                                 : 2h 37mn\r\nBit rate mode                            : Constant\r\nBit rate                                 : 224 Kbps\r\nChannel(s)                               : 2 channels\r\nChannel positions                        : Front: L R\r\nSampling rate                            : 48.0 KHz\r\nBit depth                                : 16 bits\r\nCompression mode                         : Lossy\r\nStream size                              : 252 MiB (9%)\r\nTitle                                    : Stereo\r\nEncoded date                             : UTC 2016-02-08 12:02:04\r\nTagged date                              : UTC 2016-02-08 12:02:04","torrent":{"xt":"urn:btih:e3b0a03a9e4e1aa9d00427109165928995a79de4","amp;dn":"Umphrey%27s+McGee+-+2016-02-06+-+Albany%2C+NY+%28720p+TourGigs+Rip%29","amp;tr":["udp%3A%2F%2Ftracker.leechers-paradise.org%3A6969","udp%3A%2F%2Fzer0day.ch%3A1337","udp%3A%2F%2Fopen.demonii.com%3A1337","udp%3A%2F%2Ftracker.coppersurfer.tk%3A6969","udp%3A%2F%2Fexodus.desync.com%3A6969"],"infoHash":"e3b0a03a9e4e1aa9d00427109165928995a79de4","infoHashBuffer":{"type":"Buffer","data":[227,176,160,58,158,78,26,169,208,4,39,16,145,101,146,137,149,167,157,228]},"announce":[],"urlList":[]}}